<?xml version="1.0" standalone="no"?>
<!DOCTYPE svg PUBLIC "-//W3C//DTD SVG 20010904//EN"
 "http://www.w3.org/TR/2001/REC-SVG-20010904/DTD/svg10.dtd">
<svg version="1.0" xmlns="http://www.w3.org/2000/svg"
 width="1024.000000pt" height="1536.000000pt" viewBox="0 0 1024.000000 1536.000000"
 preserveAspectRatio="xMidYMid meet">

<g transform="translate(0.000000,1536.000000) scale(0.100000,-0.100000)"
fill="#000000" stroke="none">
<path d="M511 14312 c-19 -9 -44 -30 -55 -45 l-21 -28 -3 -3172 c-2 -3005 -1
-3174 15 -3207 10 -19 33 -45 52 -57 l34 -23 2424 0 2423 0 -24 48 c-57 114
-112 306 -141 499 -22 152 -24 145 28 125 33 -13 77 -16 202 -17 147 0 164 2
212 24 103 46 164 146 192 313 11 61 23 103 32 109 7 5 48 9 90 9 l76 0 7 -67
c14 -135 84 -288 156 -341 50 -37 109 -53 217 -59 312 -17 473 127 473 425 l0
83 68 -3 67 -3 10 -69 c6 -38 15 -71 22 -73 7 -3 29 30 53 77 73 146 147 204
249 198 54 -3 56 -2 76 31 11 18 45 59 76 90 71 72 93 127 87 213 -4 60 -3 65
32 109 69 88 76 181 22 292 l-31 61 26 30 c71 85 69 206 -5 310 -27 38 -47
106 -32 106 4 0 12 -15 17 -32 l10 -33 16 35 16 35 1 -32 c0 -18 5 -33 10 -33
6 0 10 23 10 50 0 59 -21 69 -40 18 l-12 -33 -9 33 c-14 49 -39 42 -39 -12 l0
-44 -52 27 c-29 14 -54 26 -55 26 -1 1 4 23 12 50 18 59 12 100 -25 158 -28
44 -111 97 -152 97 -17 0 -18 69 -18 1725 l0 1725 1205 0 1205 0 -2 -3002 -3
-3003 -1202 -3 -1203 -2 0 156 0 155 -22 -8 c-13 -4 -53 -8 -89 -8 -57 0 -71
4 -103 29 -21 15 -39 26 -40 25 -2 -2 -14 -98 -26 -214 -27 -249 -37 -617 -21
-722 17 -110 23 -118 120 -164 47 -23 88 -42 89 -44 2 -2 -16 -55 -41 -117
-25 -62 -83 -212 -128 -333 -88 -236 -99 -255 -213 -368 -54 -55 -89 -79 -174
-120 -94 -46 -110 -57 -130 -95 -30 -55 -55 -177 -86 -432 -52 -421 -72 -643
-102 -1150 -21 -352 -25 -1208 -6 -1400 7 -69 15 -164 19 -212 l6 -86 60 -22
c34 -13 78 -39 104 -62 77 -72 133 -230 133 -376 0 -73 -34 -222 -53 -234 -7
-4 -25 -8 -42 -8 -16 0 -92 -12 -167 -27 -123 -24 -144 -26 -204 -16 -74 13
-180 61 -359 163 -66 37 -140 74 -165 80 -86 23 -216 -6 -438 -96 -150 -62
-209 -71 -255 -41 -50 32 -25 99 60 162 90 66 320 169 468 210 64 18 80 26 80
41 0 48 -192 -3 -400 -106 -186 -93 -275 -175 -275 -255 0 -24 -2 -25 -68 -25
-83 0 -112 16 -112 64 0 44 43 108 126 187 126 119 268 206 484 295 63 26 124
55 135 65 17 17 18 21 5 34 -13 12 -27 9 -113 -25 -143 -58 -305 -143 -402
-212 -95 -68 -227 -200 -252 -253 -14 -29 -22 -35 -49 -35 -74 0 -85 65 -26
156 125 193 275 314 615 499 113 62 137 84 112 105 -11 9 -37 0 -132 -51 -281
-149 -447 -275 -565 -428 -33 -43 -68 -38 -93 15 -22 46 -16 67 40 134 25 30
45 57 45 60 0 3 -105 64 -232 135 -127 72 -253 143 -280 158 l-50 29 28 15
c16 8 36 21 44 28 13 12 23 12 53 3 109 -33 227 86 215 217 -4 42 -8 38 -29
-35 -19 -64 -85 -130 -131 -130 -53 0 -65 16 -71 95 -6 83 -67 272 -126 394
-47 97 -58 112 -77 104 -23 -8 -17 -34 35 -155 82 -191 131 -367 117 -423 -8
-33 -61 -65 -108 -65 -53 0 -91 36 -112 107 -43 142 -91 274 -129 352 -44 89
-68 114 -88 94 -9 -9 0 -38 38 -125 57 -128 133 -348 133 -384 0 -36 -42 -74
-82 -74 -39 0 -90 29 -113 64 -9 14 -54 107 -101 208 -110 238 -115 248 -136
248 -13 0 -18 -8 -18 -30 0 -35 130 -323 178 -394 33 -50 32 -64 -8 -67 -130
-10 -220 56 -345 256 -63 100 -63 100 -102 98 -21 -1 -139 -22 -262 -48 -123
-26 -227 -43 -231 -38 -3 4 -24 87 -44 183 -21 96 -49 220 -62 274 -13 55 -22
101 -20 103 2 2 86 -59 188 -135 190 -143 242 -172 306 -172 21 0 48 -7 60
-16 42 -29 33 -7 -14 37 -82 76 -91 88 -104 134 -33 118 40 272 169 354 75 49
155 73 246 75 111 2 165 -16 232 -77 58 -54 56 -54 88 4 16 29 35 134 35 191
0 20 4 39 9 43 5 3 126 45 268 94 142 49 282 98 311 109 28 11 52 17 52 14 0
-4 -9 -63 -20 -132 -12 -69 -36 -251 -54 -405 l-32 -280 37 -58 c34 -52 99
-211 99 -240 0 -7 57 -44 128 -82 70 -38 192 -105 272 -150 80 -45 159 -90
177 -98 l31 -17 31 128 c64 265 168 822 296 1592 158 949 279 1490 408 1820
46 116 46 125 21 309 -8 58 -14 108 -14 113 0 4 18 -3 39 -17 79 -49 157 -69
271 -69 123 0 215 27 334 96 151 88 321 292 395 474 26 64 45 134 37 134 -2 0
-28 -33 -59 -72 -150 -196 -335 -330 -557 -404 -78 -26 -97 -28 -240 -28 -112
0 -170 5 -208 16 l-54 16 -66 -61 c-37 -34 -112 -107 -167 -163 l-100 -102
-125 -35 c-69 -20 -186 -52 -260 -73 -74 -20 -163 -49 -198 -65 -96 -43 -239
-141 -422 -289 -313 -254 -355 -287 -465 -370 -182 -136 -348 -243 -819 -524
-289 -173 -473 -289 -518 -328 -100 -86 -202 -210 -250 -304 -40 -77 -43 -81
-63 -69 -30 20 -749 249 -1190 380 -214 64 -460 138 -546 165 -204 64 -220 66
-275 45 -50 -19 -64 -38 -64 -87 0 -37 -1 -34 75 -308 46 -166 207 -764 305
-1130 16 -58 52 -190 80 -295 28 -104 71 -262 95 -351 48 -182 62 -213 107
-248 18 -13 269 -173 558 -354 289 -181 709 -444 934 -585 l408 -257 60 0 c33
0 88 7 122 15 109 28 381 108 389 115 4 4 3 19 -2 33 -17 44 1 73 56 90 92 30
116 31 168 4 l48 -24 156 32 c188 39 407 98 632 171 92 30 168 54 171 54 2 0
5 -12 6 -27 4 -44 29 -72 71 -79 34 -5 40 -11 50 -45 6 -21 24 -48 39 -59 23
-19 38 -21 107 -19 68 3 85 0 115 -19 75 -47 124 -42 330 38 171 66 229 81
322 81 l77 1 183 -95 c101 -52 214 -105 252 -116 82 -25 185 -27 272 -5 76 19
34 38 499 -229 187 -107 414 -237 505 -289 91 -52 401 -229 690 -393 289 -164
562 -320 608 -347 56 -32 84 -44 87 -36 9 24 74 441 100 638 15 107 38 316 53
464 l27 268 115 33 c386 111 520 222 576 475 20 89 22 374 4 571 -38 428 -106
960 -154 1209 -187 958 -317 1449 -464 1760 -109 228 -349 449 -676 620 -113
60 -349 163 -441 194 l-51 16 -17 90 c-9 50 -30 119 -46 155 -67 147 -225 297
-394 375 l-62 29 1247 1 1247 0 34 30 c19 16 40 42 46 57 8 21 11 852 9 3200
l-3 3172 -21 28 c-11 15 -36 36 -55 45 -32 17 -276 18 -4669 18 -4393 0 -4637
-1 -4669 -18z m401 -558 c11 -23 10 -29 -10 -45 -28 -22 -66 -12 -70 20 -8 52
59 72 80 25z m946 17 c8 -5 12 -21 10 -37 l-3 -29 -399 -3 c-286 -1 -403 1
-412 9 -17 14 -18 56 -1 62 21 9 791 7 805 -2z m1800 -19 c8 -52 9 -52 -403
-52 -211 0 -390 3 -399 6 -16 6 -22 54 -9 67 4 4 187 6 407 5 l401 -3 3 -23z
m800 -208 c25 -17 29 -46 8 -63 -10 -8 -233 -10 -822 -9 l-809 3 -3 34 c-2 20
2 37 10 42 7 5 369 9 803 9 700 0 793 -2 813 -16z m-3550 -31 c2 -24 -2 -34
-17 -43 -28 -15 -61 3 -61 33 0 31 20 48 50 45 20 -2 26 -9 28 -35z m646 15
c8 -13 8 -23 0 -35 -10 -16 -35 -18 -249 -21 -244 -2 -265 0 -265 37 0 39 16
41 264 39 215 -3 240 -5 250 -20z m-636 -202 c5 -23 -16 -46 -42 -46 -46 0
-62 48 -24 74 19 13 25 14 43 2 11 -7 21 -21 23 -30z m1092 19 c10 -12 10 -21
2 -40 l-12 -25 -463 0 c-347 0 -466 3 -475 12 -13 13 -16 50 -5 61 3 4 217 7
473 7 407 0 469 -2 480 -15z m1218 -30 c-2 -20 -6 -35 -10 -35 -5 0 -86 0
-182 0 -185 0 -192 2 -179 49 5 20 11 21 190 21 l184 0 -3 -35z m800 -2 l3
-33 -325 0 c-318 0 -325 0 -331 20 -16 49 -5 50 334 48 l316 -3 3 -32z m-3118
-152 c15 -29 13 -39 -15 -57 -24 -16 -27 -16 -45 1 -24 22 -25 38 -4 59 21 22
51 20 64 -3z m801 9 c21 -12 25 -40 7 -58 -9 -9 -95 -12 -324 -12 -172 0 -319
3 -328 6 -19 7 -21 45 -4 62 16 16 620 17 649 2z m1552 -20 l177 0 0 -30 0
-30 -205 0 c-195 0 -205 1 -205 19 0 37 12 53 34 47 11 -3 101 -6 199 -6z
m1115 -21 l3 -26 -272 -6 c-150 -4 -339 -7 -421 -7 l-149 0 3 28 c3 27 4 27
93 33 50 3 236 5 415 5 l325 -1 3 -26z m-3474 -155 c31 -31 13 -74 -31 -74
-21 0 -43 25 -43 49 0 14 29 41 45 41 7 0 21 -7 29 -16z m644 -6 c21 -21 14
-57 -10 -63 -13 -3 -126 -4 -253 -3 l-230 3 -3 23 c-8 53 -10 52 246 52 172 0
241 -3 250 -12z m1836 -24 c4 -9 4 -25 1 -34 -7 -23 -46 -27 -189 -20 -114 5
-138 16 -123 54 6 14 27 16 156 16 129 0 150 -2 155 -16z m414 -21 l3 -31 -77
-7 c-90 -9 -225 0 -234 16 -4 6 -5 21 -2 35 l4 25 152 -3 151 -3 3 -32z
m-2894 -152 c23 -25 13 -59 -20 -67 -49 -12 -73 41 -32 70 28 20 31 20 52 -3z
m710 -3 c8 -13 8 -23 0 -35 -10 -16 -36 -18 -274 -21 -270 -2 -290 0 -290 37
0 39 15 41 289 39 239 -3 265 -5 275 -20z m1918 -33 c-2 -16 -7 -34 -12 -39
-5 -4 -80 -5 -169 -1 l-161 7 0 34 0 34 173 -2 172 -3 -3 -30z m568 -5 l0 -30
-227 2 -228 3 -3 28 -3 27 230 0 231 0 0 -30z m-2282 -143 c18 -12 15 -55 -5
-64 -10 -4 -184 -6 -388 -3 l-370 5 -3 23 c-8 52 -9 52 387 49 201 -1 372 -6
379 -10z m-918 -11 c28 -35 -11 -93 -47 -70 -36 22 -23 84 17 84 10 0 23 -7
30 -14z m2848 -48 c20 -20 14 -48 -14 -58 -14 -6 -122 -10 -240 -10 l-214 0 0
40 0 40 228 0 c164 0 231 -3 240 -12z m1112 -22 c0 -34 0 -34 -52 -39 -29 -2
-242 -4 -473 -3 l-420 1 -3 23 c-8 54 -30 52 478 52 l470 0 0 -34z m-3955
-146 c0 -33 -2 -35 -35 -35 -29 0 -36 4 -38 23 -6 40 5 54 40 50 30 -3 33 -6
33 -38z m1143 28 c17 -17 15 -55 -4 -62 -9 -3 -230 -6 -493 -6 -493 0 -501 1
-501 40 0 39 8 40 505 40 361 0 484 -3 493 -12z m1612 -98 l0 -41 -152 3
c-152 3 -153 3 -156 26 -7 51 -3 52 158 52 l150 0 0 -40z m660 5 l0 -35 -270
0 -270 0 -11 27 c-7 20 -6 28 3 35 7 4 133 8 281 8 l267 0 0 -35z m1821 19
c14 -17 3 -51 -19 -56 -9 -2 -392 -2 -849 0 l-833 4 0 27 c0 15 3 31 7 35 4 4
385 6 846 5 663 -2 840 -5 848 -15z m-5250 -114 c38 -21 18 -80 -28 -80 -33 0
-49 35 -28 66 17 27 27 29 56 14z m713 -6 c19 -18 19 -20 6 -45 -10 -18 -24
-19 -280 -19 -160 0 -271 4 -275 10 -10 16 6 59 23 63 10 3 128 5 264 6 212 1
249 -1 262 -15z m2237 -95 c12 -48 5 -50 -187 -47 -179 3 -179 3 -182 26 -8
52 -6 53 185 50 l177 -3 7 -26z m344 -9 l0 -35 -113 -3 c-112 -3 -112 -3 -122
23 -19 51 -8 56 119 53 l116 -3 0 -35z m845 21 c5 -11 7 -27 4 -35 -5 -14 -50
-16 -385 -16 l-379 0 0 28 c0 16 3 32 7 35 3 4 172 7 374 7 353 0 369 -1 379
-19z m-4118 -117 c11 -23 10 -29 -11 -45 -21 -17 -26 -18 -45 -6 -41 27 -27
77 20 77 17 0 28 -9 36 -26z m923 -19 l0 -30 -387 -3 c-383 -2 -387 -2 -393
18 -16 50 -11 50 399 48 l381 -3 0 -30z m2463 -57 c7 -7 12 -22 12 -34 0 -20
-6 -23 -62 -26 -35 -2 -215 -5 -400 -7 -347 -2 -378 1 -378 37 0 41 9 42 420
42 295 0 399 -3 408 -12z m1232 -28 l0 -30 -564 0 c-311 0 -567 4 -570 8 -3 5
-2 18 1 30 l5 22 564 0 564 0 0 -30z m395 0 l0 -25 -134 -3 c-74 -1 -139 2
-144 7 -5 5 -6 19 -2 30 6 21 11 21 143 19 l137 -3 0 -25z m-4177 -75 c16 -6
15 -50 -2 -64 -16 -13 -653 -15 -675 -2 -7 5 -11 21 -9 37 l3 29 100 5 c113 6
563 2 583 -5z m-844 -21 c19 -18 20 -28 6 -55 -19 -35 -80 -18 -80 22 0 21 26
49 45 49 7 0 21 -7 29 -16z m4788 -62 c5 -5 8 -18 6 -28 -3 -18 -37 -19 -913
-19 l-910 0 0 25 0 25 390 5 c602 8 1416 3 1427 -8z m-1922 -27 l0 -35 -187 2
c-172 3 -188 5 -191 21 -9 46 -3 47 193 47 l185 0 0 -35z m-2272 -91 c21 -6
15 -62 -8 -69 -23 -7 -417 2 -430 10 -16 10 -11 53 7 64 17 9 400 5 431 -5z
m649 -2 c76 -4 92 -16 73 -53 -10 -18 -25 -19 -300 -19 -158 0 -295 3 -304 6
-19 7 -21 45 -4 62 9 9 70 12 238 10 124 -1 257 -3 297 -6z m-1237 -27 c15
-19 6 -61 -16 -69 -27 -10 -53 3 -60 30 -8 30 11 54 41 54 12 0 28 -7 35 -15z
m2923 -65 c3 -10 0 -26 -7 -35 -9 -13 -40 -15 -226 -13 -198 3 -215 4 -218 21
-9 46 -6 47 227 47 209 0 219 -1 224 -20z m-2929 -132 c13 -19 14 -25 2 -43
-26 -39 -76 -26 -76 19 0 46 48 62 74 24z m615 -7 c7 -13 7 -23 -2 -35 -11
-15 -37 -16 -232 -14 -203 3 -220 4 -223 21 -9 46 -6 47 227 47 205 0 221 -1
230 -19z m2163 -26 c17 -38 -4 -55 -66 -55 -56 0 -76 12 -76 45 0 32 7 35 72
35 52 0 60 -3 70 -25z m-2059 -155 c5 -4 7 -18 5 -31 l-3 -24 -285 0 -285 0 0
30 0 30 255 5 c257 5 298 4 313 -10z m-723 -5 c15 -18 10 -45 -12 -59 -33 -20
-69 20 -54 60 7 18 50 18 66 -1z m3195 -25 l0 -35 -272 -3 -273 -2 0 40 0 40
273 -2 272 -3 0 -35z m1433 11 c8 -52 15 -51 -643 -51 -633 0 -635 0 -635 40
0 40 0 40 650 38 l625 -3 3 -24z m-4312 -169 c18 -12 23 -39 11 -57 -10 -13
-27 -15 -87 -13 -71 3 -75 4 -78 27 -3 15 3 30 14 38 19 14 122 18 140 5z
m3715 -2 c19 -11 27 -54 11 -64 -5 -3 -331 -8 -725 -12 -659 -6 -718 -6 -742
10 -20 13 -34 48 -22 58 1 2 324 5 717 8 393 3 721 6 728 8 7 1 22 -3 33 -8z
m-4023 -16 c14 -25 3 -53 -24 -60 -42 -11 -72 34 -42 64 17 17 55 15 66 -4z
m230 -176 c2 -8 -6 -25 -16 -39 -17 -21 -23 -22 -46 -11 -33 15 -35 55 -4 76
19 13 25 14 43 2 11 -7 21 -20 23 -28z m838 11 c23 -24 10 -55 -28 -63 -17 -3
-178 -6 -357 -6 -241 0 -330 3 -339 12 -10 10 -17 54 -9 60 5 4 365 13 534 13
156 0 185 -2 199 -16z m1394 -17 c28 -23 20 -59 -17 -73 -35 -13 -62 -3 -69
26 -7 29 1 43 30 55 30 12 31 12 56 -8z m-1625 -176 c10 -13 11 -24 4 -38 -9
-17 -24 -18 -257 -16 l-247 3 -3 24 c-2 14 3 30 11 35 9 7 99 11 246 11 216 0
233 -1 246 -19z m-615 -5 c20 -39 -22 -82 -60 -61 -23 12 -28 65 -7 73 27 12
57 6 67 -12z m2779 -45 c9 -11 10 -20 1 -36 -11 -20 -16 -20 -328 -18 -296 3
-317 4 -320 21 -9 47 -12 47 321 47 261 0 317 -2 326 -14z m-2793 -134 c21
-14 23 -41 5 -63 -35 -44 -97 3 -70 53 10 18 45 24 65 10z m665 -13 c9 -17 8
-25 -5 -37 -13 -13 -54 -17 -245 -20 -126 -3 -241 -2 -254 2 -30 7 -37 23 -26
54 l8 22 255 0 c250 0 256 0 267 -21z m1627 -136 l3 -33 -219 0 -220 0 -4 23
c-9 48 -9 48 220 45 l217 -3 3 -32z m1259 21 c3 -9 2 -24 -4 -33 -9 -14 -65
-16 -564 -16 -526 0 -554 1 -557 18 -10 49 -31 47 563 47 505 0 556 -1 562
-16z m-3549 -80 c26 -18 28 -41 5 -66 -31 -35 -73 -16 -73 34 0 15 8 31 18 37
23 14 24 14 50 -5z m517 -19 l0 -30 -175 0 c-161 0 -175 1 -178 18 -9 46 -3
48 180 45 l173 -3 0 -30z m4582 -105 c250 -33 510 -126 638 -227 101 -80 130
-179 96 -330 -12 -51 -21 -111 -21 -132 0 -55 23 -159 60 -265 16 -50 30 -93
30 -97 0 -14 -154 -17 -188 -3 -72 30 -182 44 -336 44 -207 0 -337 -26 -391
-77 -17 -17 -33 -18 -150 -15 -90 3 -135 8 -145 18 -30 26 -126 63 -194 75
-68 11 -330 7 -387 -6 l-26 -7 -6 149 c-9 222 5 454 32 525 64 168 283 294
596 343 100 16 289 18 392 5z m-4088 -44 c15 -9 14 -49 -1 -64 -9 -9 -118 -12
-429 -12 -366 0 -420 2 -433 16 -9 8 -16 21 -16 27 1 29 18 36 100 39 157 5
768 0 779 -6z m1449 -18 l-3 -33 -309 0 c-273 0 -310 2 -319 16 -6 9 -7 24 -4
33 6 14 39 16 322 16 l316 0 -3 -32z m470 0 l3 -28 -171 0 c-142 0 -172 2
-176 15 -4 8 -4 22 0 30 5 13 31 15 173 13 l168 -3 3 -27z m-2920 10 c7 -7 12
-21 12 -33 0 -29 -19 -45 -52 -45 -17 0 -31 7 -38 21 -24 43 43 92 78 57z
m786 -200 c8 -13 8 -23 0 -35 -10 -16 -37 -18 -292 -21 -273 -2 -281 -2 -292
18 -8 14 -8 26 0 40 11 20 19 20 292 18 255 -3 282 -5 292 -20z m2136 2 c6
-12 8 -30 5 -40 -6 -20 -19 -20 -549 -20 -476 0 -545 2 -556 15 -10 12 -10 21
-2 40 l12 25 539 0 c533 0 540 0 551 -20z m-2858 -7 c37 -33 13 -77 -39 -71
-22 2 -29 9 -31 31 -6 51 33 74 70 40z m2 -169 c9 -8 16 -24 16 -34 0 -20 -25
-50 -41 -50 -27 0 -49 22 -49 50 0 44 44 65 74 34z m910 -9 c9 -9 16 -22 16
-29 0 -34 -23 -36 -406 -34 l-379 3 -3 32 -3 32 83 3 c46 2 216 5 380 6 260 2
298 1 312 -13z m1300 -31 c9 -4 16 -18 16 -34 0 -16 -7 -30 -16 -34 -9 -3 -81
-6 -160 -6 l-144 0 0 35 0 34 143 4 c78 1 143 4 144 5 1 1 8 -1 17 -4z m1080
-10 c9 -8 16 -21 16 -28 0 -35 -17 -36 -472 -36 -431 0 -448 1 -458 19 -5 11
-7 27 -4 35 5 14 57 16 438 19 237 1 439 3 448 5 9 1 24 -5 32 -14z m-3293
-134 c29 -16 25 -58 -7 -72 -31 -14 -57 -1 -62 31 -6 42 28 62 69 41z m647
-42 c3 -23 -1 -28 -30 -33 -18 -3 -131 -5 -251 -3 -231 3 -249 7 -226 50 9 17
27 18 257 16 l247 -3 3 -27z m1906 -40 c8 -13 8 -23 0 -35 -10 -16 -39 -18
-327 -21 l-317 -2 -6 25 c-14 57 -23 56 322 53 289 -3 318 -5 328 -20z m-2544
-128 c17 -33 -4 -62 -43 -58 -25 2 -33 8 -35 26 -6 37 5 52 37 52 20 0 34 -7
41 -20z m320 0 c17 -17 18 -24 9 -42 -10 -19 -17 -20 -72 -14 -33 3 -73 6 -88
6 -25 0 -29 4 -29 28 0 16 3 32 7 35 3 4 39 7 80 7 60 0 77 -4 93 -20z m1748
-72 c4 -33 -17 -41 -103 -36 -48 2 -60 6 -63 21 -8 42 4 48 85 45 77 -3 78 -4
81 -30z m-2067 -119 c16 -30 -3 -69 -34 -69 -29 0 -47 17 -47 45 0 45 60 63
81 24z m429 0 c9 -15 8 -24 -1 -35 -10 -12 -39 -14 -153 -12 -127 3 -141 5
-144 21 -9 44 0 47 147 47 132 0 141 -1 151 -21z m1374 -65 c47 -46 -27 -102
-76 -57 -18 16 -24 53 -11 66 12 13 72 7 87 -9z m2600 -19 c79 -17 120 -38
150 -78 30 -41 28 -169 -4 -261 -51 -143 -115 -181 -305 -181 -129 0 -178 11
-231 51 l-32 23 1 210 1 210 25 10 c81 33 279 41 395 16z m1055 -5 c138 -23
178 -69 167 -195 -20 -243 -139 -337 -404 -322 -117 7 -169 30 -211 94 -67
101 -99 260 -68 334 17 40 72 73 148 88 63 13 293 13 368 1z m-4679 -95 c18
-22 8 -48 -24 -56 -45 -12 -663 -11 -686 1 -25 13 -26 46 -2 59 10 7 145 11
358 11 287 0 343 -2 354 -15z m-854 -22 c13 -52 -36 -82 -71 -43 -27 30 -7 70
35 70 24 0 31 -5 36 -27z m2842 -68 c15 -6 16 -51 0 -61 -20 -12 -1050 -5
-1065 8 -17 14 -17 45 1 55 15 8 1041 6 1064 -2z m-2850 -107 c17 -17 15 -53
-3 -68 -20 -17 -62 -5 -70 20 -14 44 41 80 73 48z m540 -7 c8 -4 12 -19 10
-32 l-3 -24 -205 0 c-190 0 -205 1 -208 18 -9 46 -4 47 200 47 106 0 199 -4
206 -9z m2880 -99 c8 -54 45 -52 -822 -52 -832 0 -826 0 -826 40 0 41 -8 40
835 38 l810 -3 3 -23z m-3628 -76 c31 -38 -9 -89 -54 -68 -45 20 -30 82 20 82
12 0 27 -7 34 -14z m878 8 c37 -8 51 -38 28 -63 -14 -15 -49 -17 -379 -19
-397 -3 -397 -3 -383 53 l6 25 338 3 c185 1 342 3 348 5 6 1 25 -1 42 -4z
m2866 -100 c20 -19 20 -38 2 -53 -10 -8 -250 -10 -887 -9 l-874 3 -3 23 c-8
54 -50 52 884 52 771 0 864 -2 878 -16z m-3737 -120 c3 -9 -4 -25 -15 -37 -18
-18 -25 -19 -47 -9 -31 14 -33 45 -3 66 23 17 54 7 65 -20z m648 -9 l0 -30
-244 0 c-214 0 -245 2 -254 16 -6 9 -7 24 -4 33 6 15 32 16 254 14 l248 -3 0
-30z m-106 -4100 c63 -32 140 -169 141 -248 0 -44 -35 -87 -71 -87 -102 0
-232 244 -173 328 18 26 61 29 103 7z"/>
<path d="M3550 13131 c0 -5 18 -8 40 -6 22 1 40 -1 40 -6 0 -5 -14 -7 -30 -5
-17 2 -33 -1 -37 -7 -4 -7 46 -8 158 -4 90 4 208 7 262 7 63 0 96 4 92 10 -3
6 4 10 17 10 18 0 20 -2 8 -10 -10 -7 23 -10 103 -10 87 0 117 3 117 13 0 8 4
7 10 -3 8 -12 11 -13 19 -1 7 11 9 11 14 0 4 -10 6 -9 6 4 1 14 -8 17 -61 17
-45 0 -59 -3 -48 -10 12 -8 9 -10 -12 -10 -14 0 -29 6 -31 13 -4 9 -8 8 -16
-3 -7 -10 -11 -11 -11 -2 0 9 -34 12 -134 12 -98 0 -136 -3 -139 -12 -4 -10
-6 -10 -6 0 -1 9 -44 12 -181 12 -99 0 -180 -4 -180 -9z"/>
<path d="M3651 12733 c0 -11 3 -13 6 -5 2 6 14 12 26 12 16 0 18 -3 9 -9 -11
-7 -10 -9 3 -14 9 -4 18 -1 21 8 4 8 14 15 23 15 14 0 14 -2 1 -10 -10 -7 28
-10 122 -9 94 1 138 5 142 12 3 9 5 8 5 0 1 -20 81 -17 81 2 0 12 -17 15 -89
15 -50 0 -93 -4 -96 -10 -3 -5 -19 -10 -36 -10 -16 0 -29 5 -29 10 0 6 -38 10
-95 10 -84 0 -95 -2 -94 -17z m412 0 c-7 -2 -21 -2 -30 0 -10 3 -4 5 12 5 17
0 24 -2 18 -5z"/>
<path d="M3863 12743 c9 -2 23 -2 30 0 6 3 -1 5 -18 5 -16 0 -22 -2 -12 -5z"/>
<path d="M3970 12516 c0 -2 8 -10 18 -17 15 -13 16 -12 3 4 -13 16 -21 21 -21
13z"/>
<path d="M4100 12516 c0 -2 11 -6 25 -8 13 -3 22 -1 19 3 -5 9 -44 13 -44 5z"/>
<path d="M4381 12494 c0 -11 3 -14 6 -6 3 7 2 16 -1 19 -3 4 -6 -2 -5 -13z"/>
<path d="M4434 12489 c-8 -13 25 -24 37 -12 7 7 3 12 -10 16 -12 3 -24 1 -27
-4z"/>
<path d="M4590 12489 c0 -6 7 -9 15 -5 8 3 15 1 15 -5 0 -6 5 -7 11 -3 8 4 7
9 -2 15 -19 12 -39 11 -39 -2z"/>
<path d="M3780 12294 c0 -14 4 -23 8 -20 5 3 49 6 99 7 78 1 91 4 85 17 -5 13
-2 13 18 -1 29 -20 80 -22 99 -4 11 10 13 10 7 0 -6 -10 18 -13 104 -13 101 0
111 2 108 18 -3 15 -14 17 -78 14 -41 -2 -76 -7 -78 -13 -5 -12 -42 -12 -42 1
0 5 7 7 15 4 8 -4 15 -1 15 5 0 7 -18 11 -50 10 -32 -2 -47 -6 -43 -13 3 -6 0
-5 -8 2 -7 6 -20 12 -28 12 -11 0 -10 -4 5 -15 18 -14 18 -14 -3 -8 -13 3 -23
9 -23 14 0 5 -47 8 -105 8 l-105 0 0 -25z m80 12 c0 -3 -4 -8 -10 -11 -5 -3
-10 -1 -10 4 0 6 5 11 10 11 6 0 10 -2 10 -4z m437 -12 c-3 -3 -12 -4 -19 -1
-8 3 -5 6 6 6 11 1 17 -2 13 -5z"/>
<path d="M4496 12311 c-3 -5 -15 -7 -26 -4 -15 4 -20 0 -20 -16 0 -21 3 -21
145 -20 92 1 142 5 139 11 -4 6 3 5 15 -1 21 -12 45 -6 37 8 -3 4 2 8 10 8 9
0 13 -6 9 -14 -4 -12 9 -14 70 -12 59 3 74 6 70 17 -3 8 0 12 7 9 7 -2 12 -10
10 -16 -1 -6 2 -11 8 -11 6 0 10 9 10 20 0 23 12 21 -185 20 -71 -1 -134 -1
-140 0 -100 9 -154 9 -159 1z m224 -15 c0 -2 -7 -6 -15 -10 -8 -3 -15 -1 -15
4 0 6 7 10 15 10 8 0 15 -2 15 -4z m195 -6 c4 -7 -3 -9 -20 -6 -37 7 -44 16
-12 16 14 0 29 -5 32 -10z"/>
<path d="M5034 12297 c-6 -19 -7 -20 -19 -4 -10 15 -14 15 -18 3 -3 -8 -3 -17
0 -20 11 -11 843 -6 843 5 0 6 -9 8 -22 3 -13 -3 -20 -3 -16 1 12 12 68 16 68
4 0 -6 -4 -7 -10 -4 -5 3 -10 2 -10 -4 0 -6 53 -10 140 -10 133 -1 140 0 140
19 0 22 53 21 -767 25 -316 2 -323 2 -329 -18z m620 -2 c3 -8 1 -15 -4 -15 -6
0 -10 7 -10 15 0 8 2 15 4 15 2 0 6 -7 10 -15z m131 -5 c-3 -5 -12 -10 -18
-10 -7 0 -6 4 3 10 19 12 23 12 15 0z m200 0 c3 -5 -1 -10 -9 -10 -8 0 -18 5
-21 10 -3 6 1 10 9 10 8 0 18 -4 21 -10z"/>
<path d="M4286 12105 c-3 -9 -6 -21 -6 -26 0 -5 160 -8 370 -8 l370 -1 -1 23
c-1 16 -3 17 -6 5 -4 -14 -17 -17 -79 -17 -64 0 -73 3 -63 15 9 11 8 14 -4 14
-8 0 -18 -7 -21 -16 -6 -16 -8 -16 -24 0 -23 20 -104 23 -96 3 3 -9 -7 -12
-36 -11 -50 1 -60 9 -18 12 65 5 37 11 -56 11 -52 0 -97 -3 -100 -7 -2 -4 14
-6 37 -4 54 5 45 -4 -11 -13 -32 -4 -44 -3 -48 9 -4 10 -21 14 -60 14 -30 -1
-54 -5 -54 -9 0 -5 8 -6 18 -2 13 4 14 3 6 -6 -12 -13 -47 -4 -38 10 3 5 -6 9
-20 9 -13 0 -31 3 -39 6 -8 3 -17 -2 -21 -11z m199 -15 c4 -6 -6 -10 -22 -10
-22 0 -25 2 -13 10 19 12 27 12 35 0z m142 4 c-3 -3 -12 -4 -19 -1 -8 3 -5 6
6 6 11 1 17 -2 13 -5z m178 -4 c3 -5 2 -10 -4 -10 -5 0 -13 5 -16 10 -3 6 -2
10 4 10 5 0 13 -4 16 -10z"/>
<path d="M4410 11890 c0 -20 7 -20 555 -20 548 0 555 0 555 20 0 20 -7 20
-542 20 -476 -1 -540 -2 -518 -15 l25 -14 -34 -1 c-25 0 -32 3 -27 15 3 8 1
15 -4 15 -6 0 -10 -9 -10 -20z m105 0 c-3 -5 -11 -10 -16 -10 -6 0 -7 5 -4 10
3 6 11 10 16 10 6 0 7 -4 4 -10z m360 0 c3 -5 1 -10 -4 -10 -6 0 -11 5 -11 10
0 6 2 10 4 10 3 0 8 -4 11 -10z m120 1 c3 -6 -4 -9 -15 -8 -11 1 -20 5 -20 9
0 11 28 10 35 -1z"/>
<path d="M5663 11889 c-2 -18 6 -19 103 -19 86 0 104 3 104 15 0 18 26 20 36
3 4 -6 3 -8 -4 -4 -6 3 -13 2 -17 -4 -3 -5 3 -10 14 -10 14 0 21 6 21 20 0 20
-5 21 -128 19 -118 -1 -128 -3 -129 -20z"/>
<path d="M3903 11723 c9 -2 23 -2 30 0 6 3 -1 5 -18 5 -16 0 -22 -2 -12 -5z"/>
<path d="M3960 11726 c0 -2 15 -6 34 -8 19 -2 32 0 30 4 -5 8 -64 12 -64 4z"/>
<path d="M4100 11719 c0 -5 6 -7 13 -3 8 5 8 2 -2 -9 -11 -15 -11 -17 1 -17
20 0 28 9 21 26 -6 16 -33 19 -33 3z"/>
<path d="M4153 11723 c9 -2 15 -8 12 -13 -3 -5 -1 -11 5 -15 5 -3 10 2 11 12
0 16 1 16 9 -2 6 -14 9 -15 9 -5 1 20 41 24 41 4 0 -8 7 -14 15 -14 12 0 12 3
-2 20 -14 15 -29 20 -68 19 -27 -1 -42 -3 -32 -6z"/>
<path d="M4335 11723 c28 -2 55 -9 60 -15 7 -8 6 -9 -2 -4 -7 4 -13 3 -13 -3
0 -6 23 -9 58 -7 93 6 101 9 32 16 l-65 7 67 1 c38 1 68 -2 70 -8 5 -16 917
-13 937 3 9 8 12 8 8 1 -4 -7 0 -14 8 -18 8 -3 17 -1 20 4 4 6 14 6 26 -1 12
-6 23 -8 27 -5 3 3 -1 6 -8 6 -11 0 -12 2 -1 13 10 10 14 8 22 -6 11 -19 79
-22 79 -2 0 5 4 4 9 -4 6 -9 11 -10 15 -2 17 27 -11 31 -204 31 -149 0 -200
-3 -203 -12 -4 -10 -6 -10 -6 0 -1 9 -106 12 -493 10 -271 -1 -470 -3 -443 -5z
m262 -9 c-3 -3 -12 -4 -19 -1 -8 3 -5 6 6 6 11 1 17 -2 13 -5z"/>
<path d="M3885 11700 c3 -5 14 -10 23 -10 15 0 15 2 2 10 -20 13 -33 13 -25 0z"/>
<path d="M4340 11700 c-13 -8 -13 -10 2 -10 9 0 20 5 23 10 8 13 -5 13 -25 0z"/>
<path d="M3958 11693 c18 -2 45 -2 60 0 15 2 0 4 -33 4 -33 0 -45 -2 -27 -4z"/>
<path d="M4058 11693 c7 -3 16 -2 19 1 4 3 -2 6 -13 5 -11 0 -14 -3 -6 -6z"/>
<path d="M4458 11176 c-11 -13 -16 -15 -12 -5 4 14 -3 16 -43 14 -61 -3 -60
-2 -66 -19 -5 -12 22 -14 161 -15 92 -1 232 -3 311 -4 133 -2 144 -1 158 18
12 16 14 16 10 3 -5 -15 0 -18 33 -16 22 1 43 -2 46 -5 4 -3 15 4 25 16 10 12
18 16 19 10 0 -7 -4 -13 -10 -13 -5 0 -10 -4 -10 -10 0 -5 7 -7 16 -3 9 3 60
6 113 7 74 1 95 4 93 14 -1 8 2 11 8 7 6 -3 8 -11 5 -16 -4 -5 28 -9 77 -9 49
0 78 4 70 9 -11 7 -11 9 2 14 9 4 15 1 13 -6 -1 -7 7 -12 18 -12 13 0 20 7 20
20 0 12 -6 19 -14 17 -13 -3 -311 -4 -328 -1 -33 5 -136 -3 -124 -10 8 -5 9
-11 3 -15 -5 -3 -12 1 -16 9 -4 11 -21 15 -68 14 -42 0 -56 -3 -43 -8 11 -5
23 -7 27 -4 4 2 5 -2 2 -10 -2 -7 -11 -14 -19 -14 -8 0 -11 5 -8 10 4 6 0 8
-10 4 -11 -4 -17 -1 -17 7 0 9 -16 14 -56 15 -35 0 -53 -3 -49 -9 4 -6 12 -7
18 -4 7 4 9 3 4 -1 -12 -13 -77 -16 -77 -4 0 6 7 9 15 6 8 -4 17 -2 20 3 4 6
-22 10 -64 10 -51 0 -70 -4 -68 -12 1 -7 -8 -14 -20 -16 -18 -3 -23 1 -23 17
0 12 -4 21 -9 21 -5 0 -7 -9 -4 -20 6 -22 -11 -27 -37 -10 -13 8 -12 10 4 10
24 0 13 13 -15 17 -15 2 -20 -1 -16 -11 3 -8 -1 -17 -9 -20 -25 -10 -32 -7
-36 13 -3 18 -4 18 -20 -3z m-73 -6 c3 -5 2 -10 -4 -10 -5 0 -13 5 -16 10 -3
6 -2 10 4 10 5 0 13 -4 16 -10z m45 -6 c0 -2 -7 -4 -15 -4 -8 0 -15 4 -15 10
0 5 7 7 15 4 8 -4 15 -8 15 -10z m299 12 c-9 -9 -69 -14 -69 -5 0 5 17 9 37 9
20 0 34 -2 32 -4z m161 0 c0 -2 -7 -7 -16 -10 -8 -3 -12 -2 -9 4 6 10 25 14
25 6z m320 -6 c0 -13 -11 -13 -30 0 -12 8 -11 10 8 10 12 0 22 -4 22 -10z
m160 -6 c0 -2 -9 -4 -20 -4 -11 0 -20 4 -20 9 0 5 9 7 20 4 11 -3 20 -7 20 -9z
m70 4 c0 -4 -12 -8 -26 -8 -14 0 -23 4 -20 8 2 4 14 8 25 8 12 0 21 -4 21 -8z"/>
<path d="M4262 11173 c2 -12 13 -18 31 -19 27 -1 27 -1 1 3 -17 3 -24 9 -20
19 3 8 1 14 -5 14 -6 0 -9 -8 -7 -17z"/>
<path d="M4490 11179 c0 -5 5 -7 10 -4 6 3 10 8 10 11 0 2 -4 4 -10 4 -5 0
-10 -5 -10 -11z"/>
<path d="M4610 11180 c0 -5 5 -10 10 -10 6 0 10 5 10 10 0 6 -4 10 -10 10 -5
0 -10 -4 -10 -10z"/>
<path d="M4487 10317 c-11 -29 9 -36 88 -34 67 2 80 5 83 20 2 9 -4 20 -13 23
-24 10 -31 -4 -9 -20 17 -13 17 -14 -9 -9 -15 3 -24 9 -21 14 3 5 -2 12 -11
16 -10 3 -21 0 -26 -8 -6 -10 -9 -10 -9 -1 0 17 -37 15 -44 -3 -3 -8 -1 -15 4
-15 6 0 10 5 10 11 0 5 5 7 10 4 15 -9 2 -25 -22 -25 -14 0 -18 5 -15 15 4 8
2 17 -2 20 -5 3 -11 -1 -14 -8z"/>
<path d="M3560 10305 c-7 -9 -10 -18 -6 -22 3 -3 6 -1 6 6 0 7 4 10 8 7 5 -3
9 1 9 9 0 19 -2 19 -17 0z"/>
<path d="M3878 10313 c6 -2 9 -10 6 -15 -4 -6 -2 -8 4 -4 6 3 13 2 16 -2 6
-11 36 -9 55 3 10 5 12 4 7 -3 -4 -7 -1 -12 7 -12 22 0 27 11 12 26 -16 17
-57 18 -72 3 -8 -8 -13 -8 -17 0 -4 6 -13 11 -19 10 -9 0 -8 -2 1 -6z"/>
<path d="M4010 10311 c0 -6 5 -13 10 -16 6 -3 10 1 10 9 0 9 -4 16 -10 16 -5
0 -10 -4 -10 -9z"/>
<path d="M4044 10300 c0 -18 2 -18 15 -5 13 12 16 12 28 -3 12 -15 14 -15 23
-1 6 11 18 14 42 10 l33 -5 -35 -7 c-20 -4 9 -6 69 -5 90 1 104 3 107 18 2 16
-11 17 -140 17 -134 0 -142 -1 -142 -19z m190 1 c3 -5 -6 -8 -20 -8 -19 0 -22
2 -13 8 18 11 26 11 33 0z m61 -1 c3 -6 -4 -10 -17 -10 -18 0 -20 2 -8 10 19
12 18 12 25 0z"/>
<path d="M4406 10309 c3 -5 -12 -10 -33 -10 -37 -1 -36 -2 12 -10 63 -11 97
-5 88 17 -5 13 -7 13 -14 2 -5 -8 -9 -8 -9 -2 0 6 -11 12 -25 12 -13 0 -22 -4
-19 -9z"/>
<path d="M3840 10289 c0 -5 5 -7 10 -4 6 3 10 8 10 11 0 2 -4 4 -10 4 -5 0
-10 -5 -10 -11z"/>
<path d="M6360 9304 c-14 -3 -48 -12 -77 -20 -82 -23 -119 -88 -73 -129 18
-17 29 -17 152 -6 95 8 149 8 188 1 124 -24 146 -24 169 -1 11 11 21 28 21 37
0 29 -64 81 -121 99 -53 17 -211 28 -259 19z"/>
<path d="M5382 9289 c-90 -17 -142 -70 -123 -122 12 -31 34 -35 125 -24 44 6
108 5 174 -2 118 -12 152 -3 152 43 0 59 -32 81 -149 102 -85 15 -117 16 -179
3z"/>
<path d="M5459 8931 c-39 -39 -43 -120 -10 -197 31 -70 107 -81 146 -20 22 34
31 133 15 180 -23 71 -98 89 -151 37z"/>
<path d="M6415 8935 c-21 -20 -25 -34 -25 -82 0 -81 15 -127 51 -158 36 -30
62 -27 96 11 50 54 52 169 6 225 -33 39 -92 41 -128 4z"/>
<path d="M1498 3913 c7 -3 16 -2 19 1 4 3 -2 6 -13 5 -11 0 -14 -3 -6 -6z"/>
<path d="M8250 13911 c0 -28 -2 -29 -33 -24 -28 4 -37 1 -55 -22 -27 -35 -28
-79 -2 -105 16 -16 31 -20 68 -17 l47 3 3 97 c2 82 0 97 -13 97 -10 0 -15 -10
-15 -29z m-12 -63 c30 -30 -2 -93 -36 -71 -21 13 -27 50 -12 69 15 17 32 18
48 2z"/>
<path d="M8539 13914 c-15 -19 -15 -152 1 -168 17 -17 30 6 30 55 0 42 3 49
20 49 17 0 20 -7 20 -44 0 -47 17 -70 47 -64 24 4 30 36 6 34 -14 -1 -19 7
-21 37 -3 32 0 37 17 37 12 0 21 7 21 15 0 8 -9 15 -20 15 -11 0 -20 7 -20 15
0 8 -7 15 -15 15 -8 0 -15 -7 -15 -15 0 -8 -9 -15 -20 -15 -23 0 -27 15 -5 24
8 3 15 10 15 16 0 16 -46 12 -61 -6z"/>
<path d="M7682 13913 c-23 -9 -44 -64 -38 -99 18 -95 166 -99 166 -4 0 28 -3
30 -35 30 -40 0 -49 -24 -13 -33 18 -5 19 -8 8 -21 -16 -20 -54 -20 -74 0 -19
18 -21 75 -4 92 17 17 67 15 74 -3 4 -8 12 -15 19 -15 24 0 26 19 5 40 -19 19
-75 26 -108 13z"/>
<path d="M8381 13843 c-17 -43 -31 -84 -31 -90 0 -24 30 -13 36 12 5 21 12 25
43 25 31 0 40 -5 49 -25 12 -25 26 -32 36 -17 2 4 -10 44 -28 87 -24 60 -37
81 -53 83 -17 3 -25 -10 -52 -75z m59 18 c0 -5 3 -16 6 -25 4 -12 0 -16 -16
-16 -16 0 -20 4 -16 16 3 9 6 20 6 25 0 5 5 9 10 9 6 0 10 -4 10 -9z"/>
<path d="M9580 13860 c0 -45 4 -60 14 -60 10 0 15 17 18 60 3 52 1 60 -14 60
-15 0 -18 -10 -18 -60z"/>
<path d="M7850 13870 c-29 -29 -27 -94 2 -114 34 -24 73 -20 97 10 28 35 26
69 -4 99 -29 30 -68 32 -95 5z m68 -22 c7 -7 12 -24 12 -39 0 -32 -32 -48 -55
-29 -27 23 -12 80 20 80 6 0 16 -5 23 -12z"/>
<path d="M8009 13871 c-49 -40 -16 -131 48 -131 32 0 73 42 73 75 0 33 -41 75
-73 75 -14 0 -35 -8 -48 -19z m69 -23 c30 -30 -2 -93 -36 -71 -21 13 -27 50
-12 69 15 17 32 18 48 2z"/>
<path d="M8710 13870 c-45 -45 -13 -130 49 -130 35 0 68 27 52 43 -7 7 -18 7
-35 -2 -27 -15 -46 -8 -46 16 0 12 10 14 45 11 43 -3 45 -2 45 24 0 52 -72 76
-110 38z m70 -20 c11 -7 7 -10 -18 -10 -20 0 -31 4 -27 10 8 13 26 13 45 0z"/>
<path d="M8850 13813 c0 -58 3 -73 15 -73 11 0 15 11 15 43 0 47 18 80 40 75
8 -2 15 4 17 14 3 13 -4 16 -41 16 l-46 -1 0 -74z"/>
<path d="M8950 13821 c0 -50 4 -70 14 -74 21 -8 26 2 26 55 0 26 5 49 10 50
32 4 35 1 40 -52 4 -40 9 -55 20 -55 19 0 26 94 10 125 -12 23 -59 27 -78 8
-9 -9 -12 -9 -12 0 0 7 -7 12 -15 12 -12 0 -15 -14 -15 -69z"/>
<path d="M9122 13867 c-45 -47 -14 -127 48 -127 41 0 70 32 70 75 0 67 -74 99
-118 52z m72 -23 c19 -18 20 -28 6 -55 -19 -35 -70 -14 -70 30 0 12 28 41 40
41 5 0 16 -7 24 -16z"/>
<path d="M9282 13867 c-45 -48 -16 -127 48 -127 65 0 95 83 47 128 -30 28 -68
28 -95 -1z m72 -23 c19 -18 20 -28 6 -55 -19 -35 -70 -14 -70 30 0 12 28 41
40 41 5 0 16 -7 24 -16z"/>
<path d="M9424 13876 c-3 -7 -4 -40 -2 -72 2 -44 7 -59 18 -59 11 0 16 13 18
47 6 90 62 88 62 -3 0 -39 3 -47 15 -43 11 5 15 22 15 63 0 61 -11 81 -45 81
-12 0 -26 -5 -33 -12 -9 -9 -12 -9 -12 0 0 17 -29 15 -36 -2z"/>
<path d="M9582 13777 c-15 -17 1 -42 23 -33 18 6 17 37 -1 43 -6 2 -16 -2 -22
-10z"/>
<path d="M9012 13305 c-24 -50 -26 -55 -14 -55 4 0 15 20 25 45 l19 45 30 -18
c16 -9 54 -39 84 -65 142 -127 250 -329 270 -506 l7 -61 -105 0 -105 0 -6 49
c-16 135 -113 292 -235 379 -23 16 -37 32 -31 34 7 2 10 9 8 16 -3 8 -9 5 -16
-8 -11 -17 -8 -22 31 -49 95 -66 187 -197 222 -316 22 -78 22 -211 0 -294 -23
-86 -74 -183 -135 -258 l-50 -62 80 -72 c79 -71 80 -71 101 -53 76 68 192 269
224 389 25 92 30 274 10 370 -26 126 -110 286 -203 385 -71 76 -160 150 -180
150 -5 0 -19 -20 -31 -45z"/>
<path d="M8970 13219 c-7 -11 -10 -23 -7 -25 2 -2 9 7 15 21 14 30 7 33 -8 4z"/>
<path d="M8830 12812 c-133 -83 -179 -108 -192 -101 -53 28 -118 -11 -118 -70
0 -49 32 -81 83 -81 35 0 77 27 77 49 0 5 78 58 173 117 206 128 209 131 205
163 -6 51 -42 39 -228 -77z"/>
<path d="M8572 12054 c-23 -16 -29 -48 -12 -59 6 -4 4 -15 -6 -30 -21 -32 -10
-60 28 -76 26 -10 35 -10 57 2 21 12 26 21 23 50 -1 18 -2 51 -2 72 0 31 -4
39 -25 47 -34 13 -37 13 -63 -6z m58 -34 c0 -13 -7 -20 -19 -20 -22 0 -35 15
-26 30 12 19 45 11 45 -10z m6 -65 c7 -18 -13 -45 -33 -45 -17 0 -27 24 -19
45 7 20 45 19 52 0z"/>
<path d="M8728 12058 c-20 -7 -28 -17 -28 -33 0 -13 5 -27 11 -30 7 -5 4 -14
-7 -26 -24 -26 -9 -69 28 -81 54 -18 111 37 79 76 -6 7 -8 29 -4 49 5 33 3 38
-21 47 -15 5 -28 10 -29 9 -1 0 -14 -5 -29 -11z m50 -41 c2 -11 -3 -17 -17
-17 -23 0 -35 15 -26 31 10 15 39 6 43 -14z m2 -62 c10 -12 10 -18 0 -30 -7
-8 -18 -15 -25 -15 -7 0 -18 7 -25 15 -10 12 -10 18 0 30 7 8 18 15 25 15 7 0
18 -7 25 -15z"/>
<path d="M8408 12015 l-3 -45 42 0 c45 0 57 -9 47 -35 -7 -17 -16 -17 -74 1
-24 7 -25 7 -9 -17 23 -34 81 -39 103 -7 9 12 16 30 16 39 0 25 -33 49 -69 49
-26 0 -32 4 -29 18 3 13 13 17 46 16 28 0 42 4 42 13 0 9 -16 13 -54 13 l-54
0 -4 -45z"/>
<path d="M8620 11624 c0 -21 -4 -24 -20 -19 -33 10 -60 -12 -60 -49 0 -42 16
-56 63 -54 l37 1 0 74 c0 42 -4 73 -10 73 -5 0 -10 -12 -10 -26z m-6 -56 c13
-22 -14 -54 -38 -45 -16 6 -22 48 -9 61 11 11 35 3 47 -16z"/>
<path d="M8660 11635 c0 -9 5 -15 11 -13 6 2 11 8 11 13 0 5 -5 11 -11 13 -6
2 -11 -4 -11 -13z"/>
<path d="M7850 11613 l-22 -28 -15 23 c-9 12 -22 22 -30 22 -10 0 -7 -10 12
-37 14 -21 25 -50 25 -65 0 -16 5 -28 10 -28 6 0 10 15 10 34 0 22 9 45 25 64
14 17 21 33 16 36 -5 4 -19 -6 -31 -21z"/>
<path d="M8260 11633 c-42 -15 -54 -79 -20 -113 26 -26 62 -26 85 0 23 25 12
39 -13 17 -10 -10 -26 -17 -35 -17 -38 0 -47 80 -11 94 9 4 28 -1 41 -10 33
-21 44 -7 14 17 -24 19 -34 22 -61 12z"/>
<path d="M8832 11629 c-36 -14 -26 -51 18 -65 19 -6 36 -16 38 -23 6 -17 -28
-26 -50 -12 -25 15 -35 7 -18 -14 18 -22 69 -15 86 10 17 27 5 45 -36 54 -19
3 -35 12 -37 18 -6 17 36 27 53 12 8 -6 18 -9 22 -5 8 8 -26 36 -42 35 -6 0
-21 -4 -34 -10z"/>
<path d="M8707 11617 c-5 -12 -2 -42 9 -94 4 -23 44 -34 44 -13 0 6 -7 10 -15
10 -10 0 -15 11 -15 35 0 24 5 35 15 35 8 0 15 5 15 10 0 6 -7 10 -15 10 -8 0
-15 5 -15 10 0 15 -17 12 -23 -3z"/>
<path d="M9355 11610 c-4 -6 -3 -16 3 -22 6 -6 12 -6 17 2 4 6 3 16 -3 22 -6
6 -12 6 -17 -2z"/>
<path d="M7886 11594 c-31 -30 -10 -94 30 -94 34 0 54 20 54 55 0 50 -50 73
-84 39z m59 -39 c0 -23 -5 -31 -21 -33 -24 -3 -38 20 -28 50 4 13 13 18 27 16
17 -2 22 -10 22 -33z"/>
<path d="M7990 11566 c0 -51 13 -65 58 -64 32 1 32 1 32 55 0 63 -17 72 -22
11 -2 -35 -7 -43 -23 -43 -16 0 -21 8 -23 43 -4 55 -22 54 -22 -2z"/>
<path d="M8110 11553 c0 -29 5 -53 10 -53 6 0 10 18 10 41 0 32 4 42 20 46 31
8 24 22 -10 20 -29 -2 -30 -3 -30 -54z"/>
<path d="M8360 11553 c0 -29 5 -53 10 -53 6 0 10 18 10 41 0 32 4 42 20 46 31
8 24 22 -10 20 -29 -2 -30 -3 -30 -54z"/>
<path d="M8433 11584 c-15 -24 -15 -29 -2 -53 17 -31 60 -39 79 -16 11 14 9
15 -20 13 -19 -2 -35 2 -37 10 -3 8 7 12 31 12 28 0 36 4 36 18 0 46 -60 57
-87 16z m62 -4 c4 -6 -5 -10 -20 -10 -15 0 -24 4 -20 10 3 6 12 10 20 10 8 0
17 -4 20 -10z"/>
<path d="M8667 11603 c-11 -10 -8 -103 3 -103 6 0 10 25 10 55 0 56 -1 60 -13
48z"/>
<path d="M8947 11592 c-47 -51 13 -119 69 -78 25 18 12 31 -14 15 -17 -10 -23
-10 -36 0 -9 8 -16 19 -16 26 0 7 7 18 16 26 13 10 19 10 36 0 26 -16 39 -3
14 15 -27 19 -50 18 -69 -4z"/>
<path d="M9066 11594 c-32 -32 -10 -94 34 -94 27 0 50 27 50 60 0 45 -52 66
-84 34z m59 -39 c0 -25 -4 -30 -25 -30 -16 0 -26 6 -28 18 -6 30 6 49 30 45
18 -2 23 -9 23 -33z"/>
<path d="M9170 11553 c0 -29 5 -53 10 -53 6 0 10 13 10 29 0 39 9 61 26 61 8
0 14 4 14 8 0 5 -13 9 -30 9 -30 0 -30 -1 -30 -54z"/>
<path d="M9243 11584 c-15 -24 -15 -29 -2 -53 17 -31 60 -39 79 -16 11 14 9
15 -20 13 -19 -2 -35 2 -37 10 -3 8 7 12 31 12 29 0 36 4 36 20 0 20 -27 40
-54 40 -9 0 -23 -12 -33 -26z m64 -9 c2 -5 -8 -10 -22 -10 -25 0 -31 6 -18 19
9 9 36 3 40 -9z"/>
<path d="M9350 11515 c0 -8 7 -15 15 -15 8 0 15 7 15 15 0 8 -7 15 -15 15 -8
0 -15 -7 -15 -15z"/>
<path d="M9205 10856 c-40 -17 -90 -75 -105 -121 -25 -75 8 -170 73 -213 35
-23 51 -27 118 -27 71 0 80 2 116 31 21 17 46 46 55 65 35 68 16 182 -39 231
-49 45 -155 61 -218 34z m165 -186 l0 -90 -85 0 -85 0 0 83 c0 46 3 87 7 90 3
4 42 7 85 7 l78 0 0 -90z"/>
<path d="M9265 10710 c-8 -14 3 -30 21 -30 8 0 14 9 14 20 0 21 -24 28 -35 10z"/>
<path d="M9254 10628 c-3 -4 12 -8 32 -8 21 0 34 3 31 7 -10 9 -58 10 -63 1z"/>
<path d="M7940 10296 c0 -53 1 -55 26 -53 35 3 53 30 38 55 -7 9 -19 16 -28
16 -9 -1 -16 4 -16 12 0 7 -4 16 -10 19 -6 4 -10 -15 -10 -49z m50 -16 c0 -11
-7 -20 -15 -20 -8 0 -15 9 -15 20 0 11 7 20 15 20 8 0 15 -9 15 -20z"/>
<path d="M8108 10290 c2 -27 8 -47 13 -44 5 3 9 11 8 17 -3 24 1 37 11 37 6 0
10 -13 10 -30 0 -16 5 -30 11 -30 6 0 9 16 7 38 -3 32 -6 37 -27 34 -17 -1
-22 2 -17 13 3 8 0 15 -7 15 -8 0 -11 -15 -9 -50z"/>
<path d="M9120 10296 c0 -55 20 -73 21 -19 0 21 3 31 6 23 27 -71 23 -69 44
-25 l19 40 -3 -34 c-1 -18 2 -31 7 -30 5 2 9 23 10 47 1 34 -1 42 -16 42 -11
0 -20 -11 -26 -32 l-8 -33 -12 33 c-17 49 -42 42 -42 -12z"/>
<path d="M9406 10322 c-10 -16 10 -77 27 -80 9 -2 17 1 17 7 0 6 -4 11 -10 11
-5 0 -10 9 -10 20 0 11 5 20 11 20 6 0 4 7 -5 15 -16 17 -23 18 -30 7z"/>
<path d="M7720 10286 c0 -35 13 -47 46 -42 21 3 30 37 18 64 -6 13 -8 11 -13
-12 -8 -41 -31 -46 -31 -7 0 17 -4 31 -10 31 -5 0 -10 -15 -10 -34z"/>
<path d="M7803 10304 c-7 -19 1 -59 11 -59 5 0 10 11 11 24 1 14 7 27 13 29 7
2 12 8 12 12 0 13 -42 7 -47 -6z"/>
<path d="M7874 10312 c-6 -4 -11 -20 -10 -37 1 -26 5 -30 29 -31 26 -1 28 1
25 35 -3 36 -21 49 -44 33z m26 -42 c0 -5 -4 -10 -10 -10 -5 0 -10 5 -10 10 0
6 5 10 10 10 6 0 10 -4 10 -10z"/>
<path d="M8035 10305 c-3 -8 -7 -21 -9 -29 -6 -19 15 -36 39 -32 38 5 27 76
-12 76 -7 0 -16 -7 -18 -15z m32 -11 c-3 -3 -12 -4 -19 -1 -8 3 -5 6 6 6 11 1
17 -2 13 -5z m-2 -24 c3 -5 -1 -10 -10 -10 -9 0 -13 5 -10 10 3 6 8 10 10 10
2 0 7 -4 10 -10z"/>
<path d="M8204 10312 c-6 -4 -11 -20 -10 -37 1 -26 5 -30 29 -30 24 -1 27 3
27 31 0 20 -6 34 -16 38 -19 7 -16 7 -30 -2z m26 -42 c0 -5 -5 -10 -11 -10 -5
0 -7 5 -4 10 3 6 8 10 11 10 2 0 4 -4 4 -10z"/>
<path d="M9248 10314 c-12 -12 -9 -52 5 -61 6 -4 22 -8 35 -8 19 -1 22 4 22
38 0 23 -4 36 -10 32 -5 -3 -10 -18 -10 -31 0 -34 -23 -26 -30 10 -3 15 -8 24
-12 20z"/>
<path d="M9337 10313 c-13 -13 -7 -30 16 -42 l22 -12 -22 5 c-23 4 -31 -8 -13
-19 22 -14 50 6 48 33 -3 35 -32 55 -51 35z"/>
<path d="M7325 8875 c-62 -27 -165 -159 -165 -212 0 -32 1 -33 45 -33 43 0 44
-1 55 -40 12 -46 25 -57 47 -39 27 23 11 98 -27 130 -31 26 -31 27 -16 57 9
17 36 48 61 69 62 51 62 95 0 68z"/>
<path d="M5887 8834 c-4 -4 -7 -37 -7 -73 0 -88 -31 -210 -80 -319 -45 -101
-48 -124 -21 -168 25 -41 76 -59 163 -58 71 1 152 32 172 66 20 33 -4 38 -94
22 -106 -18 -171 -9 -191 27 -8 16 -4 29 21 67 58 87 113 326 93 403 -9 33
-38 50 -56 33z"/>
<path d="M6305 8099 c-113 -49 -185 -62 -340 -63 -113 -1 -149 3 -185 18 -76
30 -86 31 -93 5 -19 -73 102 -124 293 -123 124 0 227 21 319 64 82 39 111 65
111 102 0 36 -15 36 -105 -3z"/>
<path d="M6115 7814 c-38 -9 -86 -12 -130 -8 -60 5 -73 3 -85 -11 -13 -15 -12
-19 9 -36 18 -15 40 -19 105 -19 129 0 207 30 185 71 -5 11 -13 18 -17 18 -4
-1 -34 -8 -67 -15z"/>
<path d="M9730 7116 c0 -2 7 -7 16 -10 8 -3 12 -2 9 4 -6 10 -25 14 -25 6z"/>
<path d="M9785 7080 c10 -11 20 -20 23 -20 3 0 -3 9 -13 20 -10 11 -20 20 -23
20 -3 0 3 -9 13 -20z"/>
<path d="M9853 6885 c0 -22 2 -30 4 -17 2 12 2 30 0 40 -3 9 -5 -1 -4 -23z"/>
<path d="M9863 5965 c0 -22 2 -30 4 -17 2 12 2 30 0 40 -3 9 -5 -1 -4 -23z"/>
<path d="M9863 5815 c0 -33 2 -45 4 -27 2 18 2 45 0 60 -2 15 -4 0 -4 -33z"/>
<path d="M9863 5600 c0 -47 2 -66 4 -42 2 23 2 61 0 85 -2 23 -4 4 -4 -43z"/>
<path d="M9852 4700 c0 -14 2 -19 5 -12 2 6 2 18 0 25 -3 6 -5 1 -5 -13z"/>
<path d="M9853 4595 c0 -44 2 -61 4 -37 2 23 2 59 0 80 -2 20 -4 1 -4 -43z"/>
<path d="M9842 4220 c0 -14 2 -19 5 -12 2 6 2 18 0 25 -3 6 -5 1 -5 -13z"/>
<path d="M9833 3970 c0 -25 2 -35 4 -22 2 12 2 32 0 45 -2 12 -4 2 -4 -23z"/>
<path d="M9822 3790 c0 -19 2 -27 5 -17 2 9 2 25 0 35 -3 9 -5 1 -5 -18z"/>
<path d="M9811 3584 c0 -11 3 -14 6 -6 3 7 2 16 -1 19 -3 4 -6 -2 -5 -13z"/>
<path d="M9792 3270 c0 -14 2 -19 5 -12 2 6 2 18 0 25 -3 6 -5 1 -5 -13z"/>
<path d="M9772 2975 c0 -16 2 -22 5 -12 2 9 2 23 0 30 -3 6 -5 -1 -5 -18z"/>
<path d="M9752 2750 c0 -19 2 -27 5 -17 2 9 2 25 0 35 -3 9 -5 1 -5 -18z"/>
<path d="M9742 2635 c0 -16 2 -22 5 -12 2 9 2 23 0 30 -3 6 -5 -1 -5 -18z"/>
<path d="M9721 2434 c0 -11 3 -14 6 -6 3 7 2 16 -1 19 -3 4 -6 -2 -5 -13z"/>
<path d="M4385 2263 c-20 -5 -162 -61 -271 -107 -33 -14 -112 -42 -175 -62
-105 -33 -118 -35 -164 -25 -27 6 -74 23 -103 36 -30 14 -60 25 -68 25 -13 0
-51 -47 -43 -54 2 -1 36 -14 74 -28 42 -16 64 -28 55 -32 -8 -3 -170 -61 -360
-130 -393 -142 -732 -267 -805 -297 -94 -40 -128 -89 -128 -189 -1 -102 -10
-91 342 -421 327 -307 338 -317 392 -334 97 -33 163 -20 444 85 138 51 423
157 635 236 793 294 918 344 967 387 49 44 63 76 63 154 l0 68 -75 73 c-42 40
-142 127 -223 194 -81 68 -212 186 -292 265 -165 160 -189 175 -265 156z m220
-468 c215 -206 340 -332 332 -336 -6 -4 -169 -64 -362 -134 -192 -70 -565
-208 -828 -306 -263 -99 -490 -179 -505 -179 -15 1 -39 6 -53 13 -42 19 -649
597 -649 617 0 38 15 50 103 84 450 172 1148 420 1311 467 115 34 226 73 264
94 15 8 30 13 34 12 5 -1 163 -150 353 -332z"/>
<path d="M3312 1622 l-22 -7 22 -32 23 -32 80 6 c107 8 111 16 6 12 -65 -3
-85 -1 -89 10 -3 9 0 11 8 6 9 -5 11 -4 6 4 -4 6 -11 9 -16 6 -5 -3 -11 -1
-15 4 -8 14 53 24 119 19 31 -1 56 0 56 5 0 9 -146 8 -178 -1z"/>
<path d="M3393 1400 c-14 -6 -23 -18 -23 -31 0 -23 82 -109 105 -109 19 0 19
19 -1 45 -9 12 -12 30 -9 46 5 21 1 31 -17 43 -25 18 -25 18 -55 6z"/>
<path d="M3720 1310 c0 -5 -15 -27 -34 -48 l-34 -37 44 -19 c28 -11 41 -22 37
-29 -4 -7 1 -6 11 2 29 24 58 71 66 107 l8 34 -49 0 c-27 0 -49 -4 -49 -10z"/>
<path d="M9691 2174 c0 -11 3 -14 6 -6 3 7 2 16 -1 19 -3 4 -6 -2 -5 -13z"/>
<path d="M9681 2074 c0 -11 3 -14 6 -6 3 7 2 16 -1 19 -3 4 -6 -2 -5 -13z"/>
<path d="M9672 2000 c0 -14 2 -19 5 -12 2 6 2 18 0 25 -3 6 -5 1 -5 -13z"/>
<path d="M9662 1920 c0 -14 2 -19 5 -12 2 6 2 18 0 25 -3 6 -5 1 -5 -13z"/>
<path d="M9652 1850 c0 -14 2 -19 5 -12 2 6 2 18 0 25 -3 6 -5 1 -5 -13z"/>
<path d="M9641 1764 c0 -11 3 -14 6 -6 3 7 2 16 -1 19 -3 4 -6 -2 -5 -13z"/>
<path d="M9632 1700 c0 -14 2 -19 5 -12 2 6 2 18 0 25 -3 6 -5 1 -5 -13z"/>
<path d="M9621 1624 c0 -11 3 -14 6 -6 3 7 2 16 -1 19 -3 4 -6 -2 -5 -13z"/>
<path d="M9592 1425 c0 -16 2 -22 5 -12 2 9 2 23 0 30 -3 6 -5 -1 -5 -18z"/>
<path d="M9581 1354 c0 -11 3 -14 6 -6 3 7 2 16 -1 19 -3 4 -6 -2 -5 -13z"/>
<path d="M9561 1224 c0 -11 3 -14 6 -6 3 7 2 16 -1 19 -3 4 -6 -2 -5 -13z"/>
<path d="M9471 684 c0 -11 3 -14 6 -6 3 7 2 16 -1 19 -3 4 -6 -2 -5 -13z"/>
<path d="M9461 624 c0 -11 3 -14 6 -6 3 7 2 16 -1 19 -3 4 -6 -2 -5 -13z"/>
<path d="M8715 223 c-298 -68 -928 -210 -957 -216 -13 -2 203 -5 480 -6 l502
-1 0 115 c0 63 -1 114 -2 114 -2 -1 -12 -3 -23 -6z"/>
</g>
</svg>
